<?xml version="1.0" encoding="UTF-8"?>
<svg id="Laag_1" data-name="Laag 1" xmlns="http://www.w3.org/2000/svg" viewBox="0 0 138.66 118.52">
  <defs>
    <style>
      .cls-1 {
        fill: #1d1d1b;
      }

      .cls-2 {
        fill: none;
        stroke: #1d1d1b;
        stroke-miterlimit: 10;
        stroke-width: 2px;
      }
    </style>
  </defs>
  <path class="cls-2" d="M27.67,65.58V5.04c0-2.23,1.81-4.04,4.04-4.04h43.82c2.23,0,4.04,1.81,4.04,4.04v60.54"/>
  <path class="cls-1" d="M85.16,90.05h-11.18c-2.07,0-3.74-.35-3.74-.78v-6.73c0-.43,1.68-.78,3.74-.78h11.18c2.07,0,3.74.35,3.74.78v6.73c0,.43-1.68.78-3.74.78Z"/>
  <path class="cls-1" d="M57.89,49.91h-8.55c-1.58,0-2.86-.35-2.86-.78v-6.73c0-.43,1.28-.78,2.86-.78h8.55c1.58,0,2.86.35,2.86.78v6.73c0,.43-1.28.78-2.86.78Z"/>
  <path class="cls-1" d="M57.89,29.47h-8.55c-1.58,0-2.86-.35-2.86-.78v-6.73c0-.43,1.28-.78,2.86-.78h8.55c1.58,0,2.86.35,2.86.78v6.73c0,.43-1.28.78-2.86.78Z"/>
  <path class="cls-1" d="M.36,115.78l4.9-6.23c.32-.41.81-.64,1.33-.65l99.69-.04h.21c7.98,0,18.19.76,22.67-5.47.1-.15.19-.31.25-.48l1.26-3.46c.47-1.29,1.3-4.49-1.14-6.26l-33.5-22.77c-1.07-.77-2.43-1.14-4.04-1.14H25.94c-.93,0-1.69-.76-1.69-1.69v-4.07c0-.93.76-1.69,1.69-1.69h66.07c3.18,0,6.05.86,8.3,2.49l33.5,22.77c4.57,3.3,6.02,8.98,3.86,14.9l-1.78,4.63c-.05.13-.12.27-.2.39-4.93,7.6-14.75,11.45-29.19,11.45h-.24l-104.58.04c-1.41,0-2.2-1.63-1.33-2.73Z"/>
</svg>